<svg width="324" height="225" viewBox="0 0 324 225" fill="none" xmlns="http://www.w3.org/2000/svg">
<path d="M171.96 23.1818C177.292 17.0947 182.048 14.3663 194.107 11.0711C194.278 11.0244 194.458 11 194.635 11H283C284.105 11 285 11.8954 285 13V184.621C285 185.726 284.105 186.621 283 186.621H194.368C180.584 186.068 173.907 195.367 162 212" stroke="#894334" stroke-width="9" stroke-linecap="round"/>
<path d="M135 215.5H7C5.89543 215.5 5 214.605 5 213.5V46.5C5 45.3954 5.89543 44.5 7 44.5H28" stroke="#894334" stroke-width="9" stroke-linecap="round"/>
<path d="M161.5 216L317.5 216C318.605 216 319.5 215.105 319.5 214V43C319.5 41.8954 318.605 41 317.5 41H291.546" stroke="#894334" stroke-width="9" stroke-linecap="round"/>
<path d="M161.969 43.5057C164.862 60.385 162.896 176.89 162.192 213.806C162.149 216.04 158.928 216.525 158.075 214.461C152.164 200.143 145.268 192.905 126.477 192.001H34.5C33.3954 192.001 32.5 191.106 32.5 190.001V9.75928C32.5 8.72315 33.2856 7.85994 34.3182 7.77445C45.8486 6.81975 108.982 1.95026 129.977 7.92873C153.117 14.5184 158.524 23.4043 161.969 43.5057Z" stroke="#894334" stroke-width="9" stroke-linecap="round"/>
<path d="M56.5 48.5H124.5C130.49 48.9871 133.289 50.1005 137 54" stroke="#894334" stroke-width="9" stroke-linecap="round"/>
<path d="M56.5 79H124.5C130.49 79.4871 133.289 80.6005 137 84.5" stroke="#894334" stroke-width="9" stroke-linecap="round"/>
<path d="M56.5 110H124.5C130.49 110.487 133.289 111.601 137 115.5" stroke="#894334" stroke-width="9" stroke-linecap="round"/>
<path d="M56.5 141H124.5C130.49 141.487 133.289 142.601 137 146.5" stroke="#894334" stroke-width="9" stroke-linecap="round"/>
<path d="M264 49H196C190.01 49.4871 187.211 50.6005 183.5 54.5" stroke="#894334" stroke-width="9" stroke-linecap="round"/>
<path d="M264 79.5H196C190.01 79.9871 187.211 81.1005 183.5 85" stroke="#894334" stroke-width="9" stroke-linecap="round"/>
<path d="M264 110.5H196C190.01 110.987 187.211 112.101 183.5 116" stroke="#894334" stroke-width="9" stroke-linecap="round"/>
<path d="M264 141.5H196C190.01 141.987 187.211 143.101 183.5 147" stroke="#894334" stroke-width="9" stroke-linecap="round"/>
</svg>
