<svg width="148" height="126" viewBox="0 0 148 126" fill="none" xmlns="http://www.w3.org/2000/svg">
<path d="M123.761 0H35.3546C27.5252 0 21.1553 5.4227 21.1553 12.0883V113.911C21.1553 120.577 27.5249 126 35.3543 126H123.761C125.464 126 126.844 124.824 126.844 123.375V104.448V2.62497C126.844 1.17545 125.464 0 123.761 0ZM120.678 120.75H35.3546C30.9257 120.75 27.3222 117.682 27.3222 113.911C27.3222 110.141 30.9257 107.073 35.3546 107.073H120.678V120.75ZM120.678 101.823H35.3546C32.375 101.823 29.6083 102.61 27.3222 103.95V12.0883C27.3222 8.31774 30.9257 5.24994 35.3546 5.24994H120.678V101.823Z" fill="#F4F5F4"/>
<path d="M72.6953 80.9817C73.1055 81.143 73.5464 81.2235 73.9876 81.2235C74.4279 81.2235 74.8685 81.1432 75.2775 80.9828C93.7294 73.7461 100.877 59.9275 99.7106 50.1509C98.9973 44.1769 94.2167 39.6169 87.5312 38.5342C82.47 37.715 77.4661 39.0872 74.0049 42.0425C70.5461 39.0856 65.5438 37.7088 60.482 38.5252C53.7952 39.6033 49.0103 44.1601 48.2913 50.1336C47.1151 59.9091 54.2503 73.7328 72.6953 80.9817ZM54.4259 50.6684C54.953 46.2897 58.4925 44.1891 61.6294 43.6831C62.1649 43.597 62.7405 43.549 63.3386 43.549C66.1325 43.549 69.4078 44.5949 71.2629 47.6547C71.7915 48.527 72.8484 49.0752 74.0014 49.0757H74.0027C75.1554 49.0757 76.212 48.5284 76.7415 47.6566C78.9968 43.9436 83.3421 43.2003 86.3785 43.6917C89.515 44.1998 93.0527 46.3028 93.5753 50.6815C94.0567 54.7128 92.6083 59.4794 89.6021 63.7589C86.1261 68.7078 80.7458 72.813 73.9889 75.6864C67.2345 72.8082 61.8583 68.699 58.3867 63.7482C55.3848 59.4666 53.9409 54.6992 54.4259 50.6684Z" fill="#F4F5F4"/>
</svg>
