<svg width="148" height="148" viewBox="0 0 148 148" fill="none" xmlns="http://www.w3.org/2000/svg">
<g clip-path="url(#clip0_259_10)">
<path d="M144.917 122.135H130.149V40.374C130.149 38.6711 128.769 37.2907 127.066 37.2907H103.616V22.7821C103.616 21.0792 102.235 19.6988 100.533 19.6988H73.9998C72.2969 19.6988 70.9166 21.0792 70.9166 22.7821V26.4168H50.5501V22.7821C50.5501 21.0792 49.1695 19.6988 47.4668 19.6988H20.9335C19.2306 19.6988 17.8503 21.0792 17.8503 22.7821V122.135H3.08329C1.38068 122.135 0 123.515 0 125.218C0 126.921 1.38068 128.301 3.08329 128.301H20.9339H47.4672H74.0002H100.533H127.066H144.917C146.62 128.301 148 126.921 148 125.218C148 123.515 146.62 122.135 144.917 122.135ZM44.3839 122.135H24.0171V94.0253H44.3839V122.135ZM44.3839 87.8587H24.0171V60.1413H44.3839V87.8587ZM44.3839 29.5001V53.9748H24.0171V25.8654H44.3839V29.5001ZM70.9169 122.135H50.5504V32.5834H70.9169V122.135ZM97.4496 40.374V122.135H77.0831V29.5001V25.8654H97.4496V40.374ZM123.983 122.135H103.616V43.4573H123.983V122.135Z" fill="#F6F4F5"/>
</g>
<defs>
<clipPath id="clip0_259_10">
<rect width="148" height="148" fill="white"/>
</clipPath>
</defs>
</svg>
