<svg width="148" height="148" viewBox="0 0 148 148" fill="none" xmlns="http://www.w3.org/2000/svg">
<path d="M9.22601 121.695H138.895C139.399 121.687 139.894 121.561 140.341 121.327C140.788 121.092 141.173 120.757 141.467 120.347C141.761 119.937 141.955 119.464 142.033 118.966C142.112 118.468 142.072 117.958 141.918 117.478L136.77 101.624C137.393 101.646 137.945 101.666 138.409 101.691C138.961 101.721 139.512 101.606 140.006 101.358C140.5 101.11 140.92 100.737 141.227 100.277C141.533 99.8171 141.714 99.2852 141.752 98.7337C141.791 98.1823 141.685 97.6305 141.445 97.1325L134.972 83.6969C136.783 83.2344 138.24 82.9231 139.266 82.7262C139.763 82.6304 140.229 82.4174 140.627 82.1051C141.025 81.7927 141.343 81.3899 141.554 80.9301C141.765 80.4704 141.863 79.9669 141.84 79.4616C141.817 78.9563 141.675 78.4636 141.423 78.0246L114.212 30.4808C113.978 30.071 113.655 29.7186 113.267 29.4492C112.879 29.1798 112.436 29.0001 111.971 28.9231C111.505 28.8462 111.028 28.8739 110.574 29.0044C110.12 29.1348 109.701 29.3646 109.347 29.6772L73.2088 61.5957C73.0877 61.5802 72.9658 61.5717 72.8438 61.5703H30.78C30.1444 61.5689 29.5232 61.7586 28.9969 62.1149C28.4707 62.4712 28.0637 62.9775 27.8289 63.568L6.27497 117.256C6.08104 117.745 6.00866 118.274 6.06404 118.797C6.11943 119.32 6.30092 119.821 6.59294 120.259C6.88181 120.695 7.27264 121.053 7.73149 121.303C8.19035 121.554 8.70337 121.688 9.22601 121.695ZM80.7863 117.648C87.7889 113.312 100.029 106.232 109.897 104.073C117.327 102.485 124.899 101.662 132.496 101.616L137.699 117.649L80.7863 117.648ZM137.166 97.5794C136.27 97.5464 135.206 97.5216 134.004 97.5141C133.973 97.5141 133.942 97.5141 133.911 97.5141C125.55 97.4714 117.208 98.3329 109.032 100.084C102.576 101.496 95.3426 104.744 89.0471 108.091C95.9566 102.327 103.425 97.269 111.341 92.9911C117.616 89.6305 124.204 86.8893 131.012 84.8063L137.166 97.5794ZM76.0234 64.5118L111.229 33.4156L137.312 78.9924C132.359 80.0405 121.765 82.8369 109.435 89.42C93.425 97.9667 81.6023 108.818 76.0234 114.476V64.5118ZM31.3662 65.6172H71.9766V117.648H10.5083L31.3662 65.6172Z" fill="#F6F4F5"/>
</svg>
