<svg width="249" height="75" viewBox="0 0 249 75" fill="none" xmlns="http://www.w3.org/2000/svg">
<path d="M141.463 32V12.736H145.719V22.186C145.803 21.9247 146.017 21.64 146.363 21.332C146.717 21.0147 147.179 20.744 147.749 20.52C148.327 20.2867 148.981 20.17 149.709 20.17C150.829 20.17 151.799 20.4453 152.621 20.996C153.442 21.5467 154.077 22.284 154.525 23.208C154.973 24.1227 155.197 25.14 155.197 26.26C155.197 27.38 154.973 28.402 154.525 29.326C154.077 30.2407 153.442 30.9733 152.621 31.524C151.799 32.0653 150.829 32.336 149.709 32.336C149.093 32.336 148.509 32.224 147.959 32C147.417 31.7853 146.946 31.51 146.545 31.174C146.153 30.8287 145.863 30.4833 145.677 30.138V32H141.463ZM151.025 26.26C151.025 25.7373 150.908 25.2707 150.675 24.86C150.451 24.44 150.138 24.1133 149.737 23.88C149.345 23.6373 148.901 23.516 148.407 23.516C147.893 23.516 147.431 23.6373 147.021 23.88C146.619 24.1133 146.302 24.44 146.069 24.86C145.835 25.2707 145.719 25.7373 145.719 26.26C145.719 26.7827 145.835 27.254 146.069 27.674C146.302 28.0847 146.619 28.4067 147.021 28.64C147.431 28.8733 147.893 28.99 148.407 28.99C148.901 28.99 149.345 28.8733 149.737 28.64C150.138 28.4067 150.451 28.0847 150.675 27.674C150.908 27.254 151.025 26.7827 151.025 26.26ZM165.265 32.336C164.005 32.336 162.885 32.0793 161.905 31.566C160.935 31.0433 160.169 30.3293 159.609 29.424C159.059 28.5093 158.783 27.464 158.783 26.288C158.783 25.112 159.059 24.0667 159.609 23.152C160.169 22.228 160.935 21.5 161.905 20.968C162.885 20.436 164.005 20.17 165.265 20.17C166.525 20.17 167.636 20.436 168.597 20.968C169.559 21.5 170.31 22.228 170.851 23.152C171.393 24.0667 171.663 25.112 171.663 26.288C171.663 27.464 171.393 28.5093 170.851 29.424C170.31 30.3293 169.559 31.0433 168.597 31.566C167.636 32.0793 166.525 32.336 165.265 32.336ZM165.265 28.836C165.751 28.836 166.171 28.7287 166.525 28.514C166.88 28.2993 167.155 27.996 167.351 27.604C167.547 27.212 167.645 26.7687 167.645 26.274C167.645 25.77 167.547 25.322 167.351 24.93C167.155 24.538 166.88 24.23 166.525 24.006C166.171 23.782 165.751 23.67 165.265 23.67C164.78 23.67 164.355 23.782 163.991 24.006C163.637 24.23 163.357 24.538 163.151 24.93C162.955 25.322 162.857 25.77 162.857 26.274C162.857 26.7687 162.955 27.212 163.151 27.604C163.357 27.996 163.637 28.2993 163.991 28.514C164.355 28.7287 164.78 28.836 165.265 28.836ZM181.97 32.336C180.71 32.336 179.59 32.0793 178.61 31.566C177.64 31.0433 176.874 30.3293 176.314 29.424C175.764 28.5093 175.488 27.464 175.488 26.288C175.488 25.112 175.764 24.0667 176.314 23.152C176.874 22.228 177.64 21.5 178.61 20.968C179.59 20.436 180.71 20.17 181.97 20.17C183.23 20.17 184.341 20.436 185.302 20.968C186.264 21.5 187.015 22.228 187.556 23.152C188.098 24.0667 188.368 25.112 188.368 26.288C188.368 27.464 188.098 28.5093 187.556 29.424C187.015 30.3293 186.264 31.0433 185.302 31.566C184.341 32.0793 183.23 32.336 181.97 32.336ZM181.97 28.836C182.456 28.836 182.876 28.7287 183.23 28.514C183.585 28.2993 183.86 27.996 184.056 27.604C184.252 27.212 184.35 26.7687 184.35 26.274C184.35 25.77 184.252 25.322 184.056 24.93C183.86 24.538 183.585 24.23 183.23 24.006C182.876 23.782 182.456 23.67 181.97 23.67C181.485 23.67 181.06 23.782 180.696 24.006C180.342 24.23 180.062 24.538 179.856 24.93C179.66 25.322 179.562 25.77 179.562 26.274C179.562 26.7687 179.66 27.212 179.856 27.604C180.062 27.996 180.342 28.2993 180.696 28.514C181.06 28.7287 181.485 28.836 181.97 28.836ZM200.663 20.506H205.479L200.061 25.994L206.039 32H201.111L196.673 27.38V32H192.417V12.736H196.673V24.51L200.663 20.506ZM209.559 32V20.506H213.815V32H209.559ZM211.743 18.14C211.071 18.14 210.501 17.9067 210.035 17.44C209.568 16.964 209.335 16.3993 209.335 15.746C209.335 15.0927 209.568 14.528 210.035 14.052C210.511 13.5667 211.08 13.324 211.743 13.324C212.181 13.324 212.583 13.436 212.947 13.66C213.311 13.8747 213.605 14.164 213.829 14.528C214.053 14.892 214.165 15.298 214.165 15.746C214.165 16.3993 213.927 16.964 213.451 17.44C212.975 17.9067 212.405 18.14 211.743 18.14ZM224.139 20.17C224.895 20.17 225.585 20.2353 226.211 20.366C226.836 20.4873 227.359 20.6273 227.779 20.786C228.208 20.9447 228.483 21.0753 228.605 21.178L227.219 23.684C227.041 23.5533 226.71 23.3853 226.225 23.18C225.749 22.9747 225.217 22.872 224.629 22.872C224.181 22.872 223.803 22.942 223.495 23.082C223.187 23.2127 223.033 23.4227 223.033 23.712C223.033 24.0013 223.201 24.2347 223.537 24.412C223.882 24.58 224.377 24.7293 225.021 24.86C225.581 24.972 226.15 25.1493 226.729 25.392C227.307 25.6347 227.788 25.994 228.171 26.47C228.563 26.9367 228.759 27.562 228.759 28.346C228.759 29.1487 228.586 29.8113 228.241 30.334C227.895 30.8567 227.438 31.2627 226.869 31.552C226.299 31.8413 225.683 32.042 225.021 32.154C224.358 32.2753 223.714 32.336 223.089 32.336C222.211 32.336 221.446 32.2567 220.793 32.098C220.149 31.9393 219.626 31.7573 219.225 31.552C218.823 31.3467 218.543 31.1833 218.385 31.062L219.757 28.262C219.999 28.4673 220.396 28.7007 220.947 28.962C221.497 29.214 222.081 29.34 222.697 29.34C223.294 29.34 223.756 29.2513 224.083 29.074C224.409 28.8967 224.573 28.6633 224.573 28.374C224.573 28.1407 224.493 27.954 224.335 27.814C224.176 27.674 223.952 27.5527 223.663 27.45C223.373 27.3473 223.023 27.254 222.613 27.17C222.239 27.0953 221.843 26.9787 221.423 26.82C221.003 26.6613 220.606 26.4467 220.233 26.176C219.859 25.896 219.556 25.546 219.323 25.126C219.089 24.706 218.973 24.1973 218.973 23.6C218.973 22.8347 219.22 22.2 219.715 21.696C220.209 21.192 220.849 20.814 221.633 20.562C222.417 20.3007 223.252 20.17 224.139 20.17ZM241.266 20.17C242.069 20.17 242.853 20.3333 243.618 20.66C244.383 20.9867 245.013 21.5047 245.508 22.214C246.003 22.914 246.25 23.838 246.25 24.986V32H241.994V25.686C241.994 24.8647 241.807 24.2487 241.434 23.838C241.07 23.418 240.571 23.208 239.936 23.208C239.516 23.208 239.115 23.32 238.732 23.544C238.349 23.7587 238.037 24.0667 237.794 24.468C237.561 24.86 237.444 25.3127 237.444 25.826V32H233.174V12.736H237.444V22.2C237.547 21.892 237.775 21.584 238.13 21.276C238.494 20.9587 238.947 20.6973 239.488 20.492C240.039 20.2773 240.631 20.17 241.266 20.17ZM141.463 58V38.736H145.719V48.186C145.803 47.9247 146.017 47.64 146.363 47.332C146.717 47.0147 147.179 46.744 147.749 46.52C148.327 46.2867 148.981 46.17 149.709 46.17C150.829 46.17 151.799 46.4453 152.621 46.996C153.442 47.5467 154.077 48.284 154.525 49.208C154.973 50.1227 155.197 51.14 155.197 52.26C155.197 53.38 154.973 54.402 154.525 55.326C154.077 56.2407 153.442 56.9733 152.621 57.524C151.799 58.0653 150.829 58.336 149.709 58.336C149.093 58.336 148.509 58.224 147.959 58C147.417 57.7853 146.946 57.51 146.545 57.174C146.153 56.8287 145.863 56.4833 145.677 56.138V58H141.463ZM151.025 52.26C151.025 51.7373 150.908 51.2707 150.675 50.86C150.451 50.44 150.138 50.1133 149.737 49.88C149.345 49.6373 148.901 49.516 148.407 49.516C147.893 49.516 147.431 49.6373 147.021 49.88C146.619 50.1133 146.302 50.44 146.069 50.86C145.835 51.2707 145.719 51.7373 145.719 52.26C145.719 52.7827 145.835 53.254 146.069 53.674C146.302 54.0847 146.619 54.4067 147.021 54.64C147.431 54.8733 147.893 54.99 148.407 54.99C148.901 54.99 149.345 54.8733 149.737 54.64C150.138 54.4067 150.451 54.0847 150.675 53.674C150.908 53.254 151.025 52.7827 151.025 52.26ZM163.445 51.826C163.445 52.7407 163.618 53.4733 163.963 54.024C164.309 54.5653 164.887 54.836 165.699 54.836C166.53 54.836 167.113 54.5653 167.449 54.024C167.795 53.4733 167.967 52.7407 167.967 51.826V46.506H172.167V52.274C172.167 53.506 171.911 54.5793 171.397 55.494C170.893 56.3993 170.161 57.0993 169.199 57.594C168.238 58.0887 167.071 58.336 165.699 58.336C164.337 58.336 163.175 58.0887 162.213 57.594C161.252 57.0993 160.519 56.3993 160.015 55.494C159.511 54.5793 159.259 53.506 159.259 52.274V46.506H163.445V51.826ZM181.921 58.336C180.811 58.336 179.845 58.0653 179.023 57.524C178.202 56.9733 177.563 56.2407 177.105 55.326C176.657 54.402 176.433 53.38 176.433 52.26C176.433 51.14 176.657 50.1227 177.105 49.208C177.563 48.284 178.202 47.5467 179.023 46.996C179.845 46.4453 180.811 46.17 181.921 46.17C182.659 46.17 183.312 46.2867 183.881 46.52C184.451 46.744 184.913 47.0147 185.267 47.332C185.622 47.64 185.837 47.9247 185.911 48.186V38.736H190.167V58H185.953V56.138C185.776 56.4833 185.487 56.8287 185.085 57.174C184.684 57.51 184.213 57.7853 183.671 58C183.13 58.224 182.547 58.336 181.921 58.336ZM183.223 54.99C183.737 54.99 184.194 54.8733 184.595 54.64C185.006 54.4067 185.328 54.0847 185.561 53.674C185.795 53.254 185.911 52.7827 185.911 52.26C185.911 51.7373 185.795 51.2707 185.561 50.86C185.328 50.44 185.006 50.1133 184.595 49.88C184.194 49.6373 183.737 49.516 183.223 49.516C182.729 49.516 182.281 49.6373 181.879 49.88C181.487 50.1133 181.175 50.44 180.941 50.86C180.717 51.2707 180.605 51.7373 180.605 52.26C180.605 52.7827 180.717 53.254 180.941 53.674C181.175 54.0847 181.487 54.4067 181.879 54.64C182.281 54.8733 182.729 54.99 183.223 54.99ZM199.802 58.336C198.691 58.336 197.725 58.0653 196.904 57.524C196.083 56.9733 195.443 56.2407 194.986 55.326C194.538 54.402 194.314 53.38 194.314 52.26C194.314 51.14 194.538 50.1227 194.986 49.208C195.443 48.284 196.083 47.5467 196.904 46.996C197.725 46.4453 198.691 46.17 199.802 46.17C200.539 46.17 201.193 46.2867 201.762 46.52C202.331 46.744 202.793 47.0147 203.148 47.332C203.503 47.64 203.717 47.9247 203.792 48.186V38.736H208.048V58H203.834V56.138C203.657 56.4833 203.367 56.8287 202.966 57.174C202.565 57.51 202.093 57.7853 201.552 58C201.011 58.224 200.427 58.336 199.802 58.336ZM201.104 54.99C201.617 54.99 202.075 54.8733 202.476 54.64C202.887 54.4067 203.209 54.0847 203.442 53.674C203.675 53.254 203.792 52.7827 203.792 52.26C203.792 51.7373 203.675 51.2707 203.442 50.86C203.209 50.44 202.887 50.1133 202.476 49.88C202.075 49.6373 201.617 49.516 201.104 49.516C200.609 49.516 200.161 49.6373 199.76 49.88C199.368 50.1133 199.055 50.44 198.822 50.86C198.598 51.2707 198.486 51.7373 198.486 52.26C198.486 52.7827 198.598 53.254 198.822 53.674C199.055 54.0847 199.368 54.4067 199.76 54.64C200.161 54.8733 200.609 54.99 201.104 54.99ZM218.551 54.318L221.659 46.506H225.831L217.935 63.824H213.679L216.339 58L211.537 46.506H215.779L218.551 54.318Z" fill="#F6F4F5"/>
<path d="M57.4003 8.03305C59.1441 6.04245 60.7022 5.13433 64.5773 4.06182C64.7479 4.0146 64.9257 3.99091 65.1028 3.99091H92.9092C94.0138 3.99091 94.9092 4.88634 94.9092 5.99091V60.2652C94.9092 61.3698 94.0138 62.2652 92.9092 62.2652H64.836C60.2621 62.0815 58.0466 65.1672 54.0956 70.6864" stroke="#F6F4F5" stroke-width="3" stroke-linecap="round"/>
<path d="M45.1364 71.8477H4C2.89543 71.8477 2 70.9523 2 69.8477V17.1068C2 16.0022 2.89543 15.1068 4 15.1068H9.63182" stroke="#F6F4F5" stroke-width="3" stroke-linecap="round"/>
<path d="M53.9295 72.0136H104.357C105.461 72.0136 106.357 71.1182 106.357 70.0136V15.9454C106.357 14.8409 105.461 13.9454 104.357 13.9454L97.0812 13.9454" stroke="#F6F4F5" stroke-width="3" stroke-linecap="round"/>
<path d="M54.085 14.7769C54.8941 19.4976 54.5579 47.7028 54.2923 63.7853C54.2554 66.0188 50.3082 66.7423 48.395 65.5894C46.8933 64.6845 44.9569 64.1778 42.3083 64.0503H13.1249C12.0203 64.0503 11.1249 63.1549 11.1249 62.0503V4.80236C11.1249 3.76623 11.9064 2.9038 12.9394 2.82369C18.7752 2.37111 37.0531 1.14468 43.4694 2.97181C51.1478 5.15837 52.9418 8.10688 54.085 14.7769Z" stroke="#F6F4F5" stroke-width="3" stroke-linecap="round"/>
<path d="M19.0886 16.4341H41.6523C43.64 16.5957 44.5685 16.9652 45.8 18.2591" stroke="#F6F4F5" stroke-width="3" stroke-linecap="round"/>
<path d="M19.0886 26.5545H41.6523C43.64 26.7161 44.5685 27.0856 45.8 28.3795" stroke="#F6F4F5" stroke-width="3" stroke-linecap="round"/>
<path d="M19.0886 36.8409H41.6523C43.64 37.0025 44.5685 37.372 45.8 38.6659" stroke="#F6F4F5" stroke-width="3" stroke-linecap="round"/>
<path d="M19.0886 47.1273H41.6523C43.64 47.2889 44.5685 47.6583 45.8 48.9523" stroke="#F6F4F5" stroke-width="3" stroke-linecap="round"/>
<path d="M87.9409 16.6H65.3773C63.3895 16.7616 62.461 17.1311 61.2296 18.425" stroke="#F6F4F5" stroke-width="3" stroke-linecap="round"/>
<path d="M87.9409 26.7205H65.3773C63.3895 26.8821 62.461 27.2515 61.2296 28.5455" stroke="#F6F4F5" stroke-width="3" stroke-linecap="round"/>
<path d="M87.9409 37.0068H65.3773C63.3895 37.1684 62.461 37.5379 61.2296 38.8318" stroke="#F6F4F5" stroke-width="3" stroke-linecap="round"/>
<path d="M87.9409 47.2932H65.3773C63.3895 47.4548 62.461 47.8243 61.2296 49.1182" stroke="#F6F4F5" stroke-width="3" stroke-linecap="round"/>
</svg>
